<?xml version="1.0" encoding="UTF-8" standalone="no"?>
<svg
   xmlns:dc="http://purl.org/dc/elements/1.1/"
   xmlns:cc="http://creativecommons.org/ns#"
   xmlns:rdf="http://www.w3.org/1999/02/22-rdf-syntax-ns#"
   xmlns:svg="http://www.w3.org/2000/svg"
   xmlns="http://www.w3.org/2000/svg"
   version="1.1"
   id="svg4526"
   viewBox="0 0 2000 2000"
   height="2000"
   width="2000">
  <defs
     id="defs4528" />
  <metadata
     id="metadata4531">
    <rdf:RDF>
      <cc:Work
         rdf:about="">
        <dc:format>image/svg+xml</dc:format>
        <dc:type
           rdf:resource="http://purl.org/dc/dcmitype/StillImage" />
        <dc:title></dc:title>
      </cc:Work>
    </rdf:RDF>
  </metadata>
  <g
     transform="translate(0,947.63784)"
     id="layer1">
    <g
       transform="matrix(4.4000066,0,0,-4.4000066,-187.31748,3457.5439)"
       id="g5622">
      <g
         id="g72"
         transform="translate(93.5513,885.9497)">
        <path
           d="M 0,0 C 61.356,97.118 189.824,126.108 286.942,64.751 384.058,3.396 413.048,-125.072 351.693,-222.189 290.337,-319.306 161.868,-348.296 64.751,-286.94 -32.365,-225.585 -61.355,-97.116 0,0"
           style="fill:#ed1d25;fill-opacity:1;fill-rule:nonzero;stroke:none"
           id="path74" />
      </g>
      <g
         id="g76"
         transform="translate(81.5151,892.8843)">
        <path
           d="M 0,0 C 65.711,104.014 203.299,135.061 307.312,69.349 411.323,3.638 442.372,-133.951 376.659,-237.964 310.946,-341.975 173.357,-373.022 69.347,-307.311 -34.665,-241.599 -65.713,-104.01 0,0 Z"
           style="fill:none;stroke:#ed1d24;stroke-width:9;stroke-linecap:butt;stroke-linejoin:miter;stroke-miterlimit:10;stroke-dasharray:none;stroke-opacity:1"
           id="path78" />
      </g>
      <g
         id="g80"
         transform="translate(380.8257,732.7007)">
        <path
           d="m 0,0 c 11.49,2.829 26.403,13.172 34.755,22.431 42.941,47.593 44.404,118.096 6.669,167.158"
           style="fill:none;stroke:#ffffff;stroke-width:10;stroke-linecap:square;stroke-linejoin:round;stroke-miterlimit:10;stroke-dasharray:none;stroke-opacity:1"
           id="path82" />
      </g>
      <g
         id="g84"
         transform="translate(120.3188,700.062)">
        <path
           d="m 0,0 7.981,-10.569 3.603,4.488 6.484,-8.894 L 12.617,-0.666 8.738,-5.499 2.402,2.991 0,0 Z"
           style="fill:#ffffff;fill-opacity:1;fill-rule:nonzero;stroke:none"
           id="path86" />
      </g>
      <g
         id="g88"
         transform="translate(133.0122,645.6958)">
        <path
           d="m 0,0 8.736,9.951 -5.123,2.621 7.401,8.15 L -1.898,12.491 3.62,9.668 -3.416,1.747 0,0 Z"
           style="fill:#ffffff;fill-opacity:1;fill-rule:nonzero;stroke:none"
           id="path90" />
      </g>
      <g
         id="g92"
         transform="translate(110.7163,670.106)">
        <path
           d="M 0,0 13.205,-1.006 12.222,4.666 23.181,3.646 8.844,9.021 9.903,2.915 -0.654,3.778 0,0 Z"
           style="fill:#ffffff;fill-opacity:1;fill-rule:nonzero;stroke:none"
           id="path94" />
      </g>
      <g
         id="g96"
         transform="translate(339.2202,720.0522)">
        <path
           d="M 0,0 C 2.139,-9.108 5.534,-16.102 -6.672,-18.966 L -76.447,-35.34 c -12.207,-2.864 -12.276,4.91 -14.414,14.018 l -0.86,3.665 c -2.137,9.105 -5.533,16.098 6.674,18.964 l 69.775,16.372 C -3.064,20.544 -2.995,12.771 -0.858,3.663 L 0,0 Z"
           style="fill:#ffffff;fill-opacity:1;fill-rule:nonzero;stroke:none"
           id="path98" />
      </g>
      <g
         id="g100"
         transform="translate(244.3091,698.7974)">
        <path
           d="m 0,0 c 0.834,-3.552 2.581,-6.178 -5.28,-8.023 l -44.936,-10.544 c -7.862,-1.845 -7.467,1.285 -8.299,4.837 l -0.336,1.43 c -0.834,3.552 -2.58,6.181 5.28,8.026 L -8.634,6.271 c 7.862,1.844 7.465,-1.289 8.299,-4.838 L 0,0 Z"
           style="fill:#ffffff;fill-opacity:1;fill-rule:nonzero;stroke:none"
           id="path102" />
      </g>
      <g
         id="g104"
         transform="translate(182.4858,684.1011)">
        <path
           d="M 0,0 C 0.834,-3.553 1.818,-6.358 -0.455,-6.892 L -13.451,-9.94 c -2.273,-0.535 -2.639,2.417 -3.473,5.969 l -0.336,1.431 c -0.833,3.551 -1.818,6.358 0.455,6.893 l 12.996,3.048 c 2.274,0.534 2.639,-2.42 3.473,-5.97 L 0,0 Z"
           style="fill:#ffffff;fill-opacity:1;fill-rule:nonzero;stroke:none"
           id="path106" />
      </g>
      <g
         id="g108"
         transform="translate(161.5972,679.3706)">
        <path
           d="m 0,0 c 0.516,-2.193 0.818,-4.111 -0.169,-5.262 l -2.597,-3.021 c -2.273,-0.532 -14.679,2.916 -16.817,4.453 0.847,2.052 9.992,11.805 12.266,12.338 l 4.524,-2.59 c 1.68,-1.103 2.072,-2.844 2.586,-5.035 L 0,0 Z"
           style="fill:#ffffff;fill-opacity:1;fill-rule:nonzero;stroke:none"
           id="path110" />
      </g>
      <g
         id="g112"
         transform="translate(354.2173,723.7104)">
        <path
           d="M 0,0 C 2.137,-9.109 2.99,-10.259 1.521,-11.905 L -5.775,-16.7 c -1.399,-0.329 -2.485,5.152 -4.622,14.26 l -0.86,3.664 c -2.138,9.106 -3.603,14.5 -2.204,14.828 l 8.666,-1.05 C -2.85,14.627 -2.997,12.771 -0.86,3.663 L 0,0 Z"
           style="fill:#ffffff;fill-opacity:1;fill-rule:nonzero;stroke:none"
           id="path114" />
      </g>
      <g
         id="g116"
         transform="translate(364.8306,727.3374)">
        <path
           d="m 0,0 c 1.371,-5.848 1.918,-6.587 0.975,-7.643 l -4.619,-3.354 c -0.898,-0.212 -1.66,3.583 -3.032,9.432 L -7.229,0.787 C -8.6,6.634 -9.607,10.373 -8.708,10.583 L -3.08,9.635 C -1.831,9.393 -1.925,8.2 -0.554,2.354 L 0,0 Z"
           style="fill:#ffffff;fill-opacity:1;fill-rule:nonzero;stroke:none"
           id="path118" />
      </g>
      <g
         id="g120"
         transform="translate(372.3042,729.9185)">
        <path
           d="m 0,0 c 0.783,-3.339 1.095,-3.762 0.556,-4.364 l -2.741,-1.5 c -0.512,-0.121 -0.85,1.628 -1.634,4.969 L -4.135,0.449 C -4.918,3.787 -5.394,5.504 -4.881,5.624 L -1.76,5.502 C -1.045,5.364 -1.1,4.683 -0.316,1.344 L 0,0 Z"
           style="fill:#ffffff;fill-opacity:1;fill-rule:nonzero;stroke:none"
           id="path122" />
      </g>
      <g
         id="g184"
         transform="translate(128.1108,825.1353)">
        <path
           d="m 0,0 c 0.393,-1.472 1.243,-2.602 2.553,-3.395 1.308,-0.792 2.693,-1.017 4.153,-0.674 1.457,0.342 2.727,0.187 3.806,-0.463 1.081,-0.652 1.79,-1.694 2.127,-3.129 0.326,-1.389 0.147,-2.615 -0.531,-3.677 -0.678,-1.063 -1.712,-1.757 -3.102,-2.082 -4.26,-1 -8.149,-0.398 -11.67,1.806 -3.52,2.204 -5.778,5.434 -6.778,9.695 l -0.894,3.82 c -0.295,1.25 -0.086,2.446 0.624,3.59 0.708,1.142 1.688,1.861 2.938,2.154 2.315,0.543 4.102,1.827 5.359,3.856 1.257,2.029 1.617,4.201 1.076,6.518 -0.544,2.314 -1.828,4.089 -3.851,5.325 -2.024,1.234 -4.192,1.581 -6.507,1.04 -2.316,-0.544 -4.094,-1.817 -5.335,-3.817 -1.24,-2 -1.589,-4.157 -1.047,-6.472 l 6.381,-27.225 c 0.325,-1.389 0.149,-2.616 -0.529,-3.679 -0.68,-1.062 -1.713,-1.756 -3.103,-2.081 -1.342,-0.316 -2.558,-0.136 -3.642,0.538 -1.085,0.673 -1.785,1.681 -2.101,3.024 l -6.381,27.224 c -1.172,5.002 -0.457,9.602 2.15,13.803 2.606,4.201 6.408,6.888 11.409,8.059 4.999,1.172 9.612,0.458 13.837,-2.141 C 5.164,29.016 7.864,25.216 9.035,20.215 9.98,16.187 9.616,12.316 7.947,8.604 6.277,4.89 3.628,2.023 0,0"
           style="fill:#ffffff;fill-opacity:1;fill-rule:nonzero;stroke:none"
           id="path186" />
      </g>
      <g
         id="g188"
         transform="translate(166.1099,818.3638)">
        <path
           d="m 0,0 c -5,-1.173 -9.604,-0.444 -13.81,2.185 -4.205,2.628 -6.895,6.442 -8.067,11.443 -1.172,5 -0.455,9.601 2.15,13.802 2.606,4.201 6.409,6.887 11.409,8.059 5,1.173 9.613,0.458 13.838,-2.142 4.223,-2.599 6.92,-6.4 8.093,-11.401 L 16.658,8.958 C 16.983,7.571 16.806,6.344 16.126,5.282 15.449,4.218 14.414,3.525 13.025,3.199 11.635,2.873 10.412,3.039 9.356,3.694 8.298,4.351 7.606,5.371 7.281,6.762 L 4.238,19.749 c -0.544,2.314 -1.828,4.088 -3.849,5.326 -2.024,1.235 -4.194,1.581 -6.509,1.038 -2.316,-0.543 -4.094,-1.814 -5.334,-3.814 -1.241,-2.002 -1.59,-4.158 -1.047,-6.473 0.543,-2.315 1.816,-4.106 3.823,-5.368 C -6.672,9.193 -4.513,8.833 -2.196,9.375 -0.809,9.701 0.427,9.538 1.508,8.889 2.588,8.237 3.291,7.218 3.617,5.829 3.942,4.439 3.768,3.201 3.095,2.117 2.42,1.031 1.391,0.326 0,0"
           style="fill:#ffffff;fill-opacity:1;fill-rule:nonzero;stroke:none"
           id="path190" />
      </g>
      <g
         id="g192"
         transform="translate(199.1978,853.814)">
        <path
           d="m 0,0 c -2.317,-0.543 -4.092,-1.827 -5.327,-3.85 -1.236,-2.024 -1.581,-4.193 -1.039,-6.508 0.544,-2.316 1.814,-4.094 3.814,-5.334 2.001,-1.242 4.158,-1.589 6.475,-1.046 2.315,0.543 4.103,1.815 5.368,3.822 1.263,2.005 1.624,4.166 1.081,6.481 L 3.99,20.79 c -0.313,1.342 -0.135,2.557 0.54,3.645 0.672,1.085 1.68,1.784 3.025,2.1 1.387,0.325 2.624,0.162 3.702,-0.488 1.081,-0.651 1.785,-1.67 2.11,-3.058 l 6.381,-27.226 c 1.162,-4.955 0.419,-9.549 -2.227,-13.784 -2.646,-4.235 -6.447,-6.933 -11.4,-8.093 -4.956,-1.162 -9.548,-0.432 -13.777,2.193 -4.23,2.622 -6.924,6.411 -8.086,11.366 -1.171,5 -0.457,9.612 2.143,13.837 2.6,4.223 6.4,6.921 11.401,8.093 C -0.81,9.701 0.428,9.526 1.515,8.853 2.599,8.179 3.305,7.148 3.631,5.76 3.957,4.371 3.78,3.144 3.102,2.081 2.423,1.019 1.389,0.325 0,0"
           style="fill:#ffffff;fill-opacity:1;fill-rule:nonzero;stroke:none"
           id="path194" />
      </g>
      <g
         id="g196"
         transform="translate(229.0278,865.6411)">
        <path
           d="M 0,0 C -0.727,3.102 -2.665,4.284 -5.814,3.546 -7.202,3.221 -8.226,2.529 -8.881,1.472 -9.537,0.414 -9.702,-0.809 -9.375,-2.198 l 6.103,-26.045 c 0.327,-1.389 1.016,-2.411 2.075,-3.067 1.056,-0.655 2.281,-0.82 3.67,-0.495 1.388,0.325 2.423,1.02 3.102,2.084 0.678,1.06 0.855,2.287 0.53,3.677 L 0,0 Z m -4.835,17.659 c 1.399,-0.869 2.284,-2.09 2.653,-3.664 0.37,-1.574 0.119,-3.062 -0.749,-4.461 C -3.799,8.132 -5.021,7.248 -6.594,6.88 -8.17,6.511 -9.655,6.76 -11.058,7.63 c -1.4,0.867 -2.283,2.088 -2.653,3.662 -0.369,1.575 -0.119,3.062 0.75,4.463 0.868,1.4 2.09,2.286 3.664,2.654 1.574,0.369 3.062,0.119 4.462,-0.75"
           style="fill:#ffffff;fill-opacity:1;fill-rule:nonzero;stroke:none"
           id="path198" />
      </g>
      <g
         id="g200"
         transform="translate(251.6646,865.9648)">
        <path
           d="m 0,0 c -2.316,-0.543 -4.094,-1.815 -5.334,-3.815 -1.242,-2.001 -1.59,-4.159 -1.048,-6.474 0.543,-2.315 1.817,-4.105 3.823,-5.367 2.005,-1.265 4.165,-1.626 6.483,-1.082 2.313,0.542 4.099,1.827 5.358,3.857 1.258,2.027 1.617,4.201 1.073,6.516 C 9.813,-4.051 8.53,-2.276 6.507,-1.04 4.483,0.195 2.314,0.542 0,0 m -2.196,9.375 c 4.997,1.173 9.61,0.458 13.835,-2.141 4.222,-2.601 6.921,-6.401 8.093,-11.401 1.173,-5 0.447,-9.617 -2.177,-13.845 -2.621,-4.23 -6.435,-6.931 -11.434,-8.102 -5.001,-1.172 -9.604,-0.444 -13.811,2.184 -4.206,2.629 -6.895,6.443 -8.068,11.444 -1.17,5.001 -0.454,9.602 2.15,13.802 2.606,4.201 6.41,6.888 11.412,8.059"
           style="fill:#ffffff;fill-opacity:1;fill-rule:nonzero;stroke:none"
           id="path202" />
      </g>
      <g
         id="g204"
         transform="translate(165.8457,780.3086)">
        <path
           d="m 0,0 14.864,3.484 c 1.249,0.292 2.448,0.072 3.596,-0.659 1.15,-0.733 1.87,-1.724 2.163,-2.973 1.629,-6.946 0.598,-13.391 -3.087,-19.334 -3.688,-5.945 -9.003,-9.73 -15.949,-11.358 -6.944,-1.629 -13.389,-0.599 -19.334,3.089 -5.944,3.686 -9.729,9.002 -11.356,15.948 -1.63,6.944 -0.599,13.387 3.087,19.333 3.686,5.943 9.002,9.729 15.948,11.357 7.363,1.727 14.194,0.396 20.498,-3.987 1.107,-0.767 1.785,-1.683 2.035,-2.747 C 12.769,10.857 12.546,9.62 11.796,8.443 11.045,7.265 10.023,6.526 8.727,6.221 7.477,5.928 6.211,6.218 4.933,7.091 1.074,9.8 -3.194,10.608 -7.87,9.512 -12.27,8.48 -15.603,6.136 -17.872,2.478 c -2.269,-3.658 -2.887,-7.686 -1.857,-12.084 1.021,-4.354 3.374,-7.672 7.061,-9.959 3.686,-2.286 7.704,-2.92 12.059,-1.9 3.425,0.804 6.26,2.518 8.502,5.144 2.241,2.625 3.491,5.677 3.75,9.159 L 2.199,-9.376 c -1.39,-0.326 -2.615,-0.149 -3.678,0.529 -1.064,0.678 -1.757,1.714 -2.082,3.103 -0.327,1.389 -0.162,2.612 0.495,3.669 C -2.411,-1.018 -1.388,-0.326 0,0"
           style="fill:#ffffff;fill-opacity:1;fill-rule:nonzero;stroke:none"
           id="path206" />
      </g>
      <g
         id="g208"
         transform="translate(200.3257,778.8657)">
        <path
           d="m 0,0 3.696,-15.767 c 0.325,-1.388 0.149,-2.616 -0.53,-3.677 -0.68,-1.064 -1.713,-1.757 -3.102,-2.082 -1.39,-0.326 -2.613,-0.161 -3.67,0.495 -1.058,0.655 -1.748,1.678 -2.074,3.068 l -3.695,15.765 c -0.988,4.213 -0.371,8.094 1.85,11.643 2.22,3.549 5.437,5.817 9.652,6.805 1.341,0.314 2.555,0.134 3.643,-0.538 C 6.855,15.039 7.555,14.03 7.87,12.687 8.544,9.815 7.315,7.869 4.185,6.842 2.643,6.333 1.469,5.46 0.659,4.22 -0.148,2.979 -0.368,1.573 0,0"
           style="fill:#ffffff;fill-opacity:1;fill-rule:nonzero;stroke:none"
           id="path210" />
      </g>
      <g
         id="g212"
         transform="translate(236.8843,765.7471)">
        <path
           d="m 0,0 c -5,-1.173 -9.604,-0.445 -13.81,2.185 -4.207,2.627 -6.897,6.442 -8.069,11.442 -1.172,5.001 -0.454,9.602 2.151,13.803 2.606,4.201 6.409,6.887 11.41,8.059 5,1.172 9.611,0.458 13.837,-2.141 4.223,-2.601 6.921,-6.401 8.094,-11.402 L 16.657,8.958 C 16.983,7.57 16.804,6.343 16.125,5.282 15.448,4.218 14.413,3.523 13.023,3.199 11.635,2.873 10.412,3.04 9.354,3.694 8.296,4.349 7.605,5.372 7.28,6.761 L 4.237,19.749 c -0.543,2.315 -1.828,4.089 -3.85,5.326 -2.025,1.234 -4.193,1.58 -6.507,1.038 -2.317,-0.543 -4.093,-1.813 -5.334,-3.814 -1.242,-2.002 -1.59,-4.159 -1.047,-6.473 0.543,-2.316 1.815,-4.105 3.822,-5.368 C -6.672,9.193 -4.514,8.833 -2.197,9.376 -0.809,9.701 0.427,9.539 1.506,8.889 2.586,8.237 3.291,7.218 3.617,5.829 3.942,4.44 3.768,3.202 3.093,2.117 2.419,1.031 1.39,0.325 0,0"
           style="fill:#ffffff;fill-opacity:1;fill-rule:nonzero;stroke:none"
           id="path214" />
      </g>
      <g
         id="g216"
         transform="translate(293.5996,800.7266)">
        <path
           d="m 0,0 c -0.358,1.528 -1.208,2.708 -2.552,3.542 -1.343,0.832 -2.779,1.07 -4.306,0.712 -1.853,-0.434 -3.166,-1.5 -3.94,-3.194 l 4.491,-19.169 c 0.328,-1.39 0.149,-2.616 -0.53,-3.678 -0.679,-1.063 -1.713,-1.756 -3.101,-2.083 -1.388,-0.326 -2.613,-0.16 -3.67,0.496 -1.057,0.656 -1.749,1.678 -2.074,3.067 l -3.695,15.765 c -0.359,1.528 -1.22,2.707 -2.587,3.534 -1.367,0.827 -2.813,1.063 -4.343,0.704 -1.573,-0.369 -2.78,-1.214 -3.617,-2.533 -0.839,-1.321 -1.074,-2.767 -0.705,-4.342 l 3.694,-15.765 c 0.327,-1.389 0.161,-2.613 -0.494,-3.67 -0.656,-1.058 -1.678,-1.748 -3.066,-2.074 -1.39,-0.325 -2.626,-0.164 -3.705,0.487 -1.081,0.651 -1.784,1.671 -2.11,3.059 l -3.693,15.766 c -0.99,4.212 -0.373,8.094 1.848,11.643 2.22,3.549 5.437,5.817 9.652,6.805 3.657,0.858 7.175,0.436 10.553,-1.263 2.225,3.013 5.189,4.953 8.893,5.821 4.214,0.988 8.091,0.382 11.636,-1.815 C 6.122,9.616 8.39,6.412 9.376,2.198 l 4.852,-20.696 c 0.368,-1.575 1.224,-2.778 2.567,-3.611 1.342,-0.833 2.803,-1.066 4.378,-0.696 l 0.276,0.064 c 1.389,0.326 2.626,0.152 3.712,-0.522 1.086,-0.672 1.791,-1.705 2.117,-3.093 0.325,-1.388 0.149,-2.615 -0.529,-3.678 -0.68,-1.063 -1.713,-1.757 -3.102,-2.083 l -0.278,-0.064 c -4.215,-0.988 -8.107,-0.374 -11.679,1.841 -3.573,2.215 -5.852,5.431 -6.838,9.644 L 0,0 Z"
           style="fill:#ffffff;fill-opacity:1;fill-rule:nonzero;stroke:none"
           id="path218" />
      </g>
      <g
         id="g220"
         transform="translate(346.7993,813.1953)">
        <path
           d="M 0,0 C -0.358,1.528 -1.208,2.709 -2.552,3.542 -3.895,4.375 -5.331,4.613 -6.859,4.255 -8.711,3.82 -10.024,2.755 -10.798,1.06 l 4.492,-19.169 c 0.326,-1.389 0.146,-2.615 -0.53,-3.677 -0.679,-1.063 -1.713,-1.758 -3.102,-2.084 -1.388,-0.324 -2.612,-0.159 -3.669,0.496 -1.058,0.656 -1.749,1.678 -2.076,3.067 l -3.694,15.765 c -0.359,1.528 -1.22,2.707 -2.587,3.535 -1.367,0.827 -2.812,1.062 -4.342,0.703 -1.573,-0.369 -2.781,-1.213 -3.62,-2.532 -0.837,-1.322 -1.072,-2.768 -0.702,-4.341 l 3.695,-15.766 c 0.325,-1.39 0.159,-2.614 -0.496,-3.671 -0.657,-1.057 -1.679,-1.748 -3.069,-2.074 -1.387,-0.325 -2.624,-0.164 -3.702,0.488 -1.08,0.65 -1.784,1.67 -2.11,3.059 l -3.695,15.766 c -0.988,4.212 -0.371,8.093 1.85,11.643 2.22,3.548 5.438,5.817 9.651,6.804 3.659,0.858 7.175,0.436 10.554,-1.262 2.225,3.012 5.19,4.953 8.894,5.821 4.214,0.988 8.09,0.381 11.636,-1.815 C 6.122,9.617 8.39,6.412 9.376,2.198 l 4.853,-20.696 c 0.368,-1.573 1.222,-2.777 2.566,-3.611 1.342,-0.833 2.802,-1.065 4.376,-0.697 l 0.278,0.066 c 1.39,0.325 2.625,0.152 3.714,-0.522 1.082,-0.674 1.789,-1.705 2.115,-3.093 0.325,-1.391 0.149,-2.616 -0.528,-3.678 -0.682,-1.064 -1.715,-1.758 -3.102,-2.083 l -0.279,-0.065 c -4.215,-0.988 -8.107,-0.372 -11.678,1.842 -3.573,2.216 -5.852,5.429 -6.839,9.643 L 0,0 Z"
           style="fill:#ffffff;fill-opacity:1;fill-rule:nonzero;stroke:none"
           id="path222" />
      </g>
      <g
         id="g224"
         transform="translate(382.5239,799.8823)">
        <path
           d="m 0,0 c -5.001,-1.171 -9.604,-0.446 -13.811,2.185 -4.208,2.629 -6.897,6.442 -8.067,11.444 -1.172,5 -0.456,9.6 2.15,13.802 2.604,4.201 6.41,6.887 11.41,8.058 5.001,1.173 9.612,0.46 13.835,-2.14 4.223,-2.6 6.924,-6.4 8.096,-11.403 L 16.655,8.959 C 16.98,7.571 16.806,6.345 16.126,5.281 15.448,4.22 14.413,3.525 13.025,3.2 11.635,2.874 10.411,3.039 9.354,3.695 8.296,4.35 7.604,5.372 7.279,6.763 L 4.235,19.749 c -0.541,2.315 -1.827,4.089 -3.848,5.326 -2.025,1.236 -4.194,1.581 -6.507,1.04 -2.319,-0.545 -4.094,-1.815 -5.334,-3.815 -1.241,-2.002 -1.59,-4.159 -1.048,-6.474 0.543,-2.315 1.817,-4.105 3.822,-5.368 C -6.674,9.194 -4.515,8.832 -2.196,9.376 -0.811,9.701 0.426,9.539 1.506,8.889 2.586,8.238 3.29,7.219 3.615,5.83 3.939,4.439 3.767,3.203 3.093,2.117 2.419,1.033 1.388,0.326 0,0"
           style="fill:#ffffff;fill-opacity:1;fill-rule:nonzero;stroke:none"
           id="path226" />
      </g>
    </g>
    <path
       transform="translate(0,-947.63784)"
       id="path5840"
       d=""
       style="fill:#ffffff;stroke:none;stroke-width:2;stroke-miterlimit:4;stroke-dasharray:none;stroke-dashoffset:0;stroke-opacity:1" />
    <path
       transform="translate(0,-947.63784)"
       id="path5842"
       d="m 404.34768,1365.4673 -10.78167,-15.225 -8.08692,9.3218 -8.08692,9.3218 -4.14067,-4.6097 c -2.27736,-2.5354 -9.83002,-12.1779 -16.78367,-21.4278 -12.05565,-16.0366 -12.51145,-17.0512 -9.81109,-21.8396 1.55755,-2.762 3.76386,-5.3295 4.9029,-5.7057 1.13904,-0.3762 7.74477,6.9766 14.6794,16.3396 6.93464,9.363 13.20269,17.031 13.92902,17.0399 0.72633,0.01 4.94539,-4.1449 9.37569,-9.2309 l 8.05509,-9.2473 9.38354,24.6257 c 5.16094,13.5441 9.10531,24.9039 8.76526,25.244 -0.34005,0.34 -5.47003,-6.233 -11.39996,-14.6068 z"
       style="fill:#ffffff;stroke:none;stroke-width:2;stroke-miterlimit:4;stroke-dasharray:none;stroke-dashoffset:0;stroke-opacity:1" />
    <path
       transform="translate(0,-947.63784)"
       id="path5844"
       d="m 389.89638,1559.4741 -5.59228,-3.0322 8.59228,-9.9843 c 4.72575,-5.4913 11.60597,-13.5071 15.28937,-17.8128 l 6.6971,-7.8286 -11.1971,-5.4915 c -6.1584,-3.0204 -11.15486,-5.9791 -11.10324,-6.575 0.13024,-1.5032 45.90614,-30.1647 45.90614,-28.743 0,0.6325 -5.4,6.9226 -12,13.978 -6.6,7.0554 -12,13.5584 -12,14.4511 0,0.8927 3.60518,3.2488 8.01151,5.2358 4.40633,1.9869 8.82911,4.5986 9.8284,5.8037 1.19444,1.4404 -4.34531,9.2143 -16.16983,22.6911 -9.89271,11.275 -18.59049,20.4639 -19.32841,20.4199 -0.73792,-0.044 -3.85819,-1.4445 -6.93394,-3.1122 z"
       style="fill:#ffffff;stroke:none;stroke-width:2;stroke-miterlimit:4;stroke-dasharray:none;stroke-dashoffset:0;stroke-opacity:1" />
    <path
       transform="translate(0,-947.63784)"
       id="path5848"
       d="m 494.15727,1449.5228 c -17.08353,-3.0796 -52.93696,-14.0545 -54.57566,-16.706 -1.50037,-2.4277 26.61166,-34.0609 39.86072,-44.8535 l 11.11254,-9.0522 11.21052,6.3777 c 13.02714,7.411 15.98794,11.2527 19.84753,25.7524 4.75471,17.8624 3.89766,24.0115 -4.62427,33.178 l -7.5,8.0672 -15.33138,-2.7636 z"
       style="fill:#ffffff;stroke:none;stroke-width:2;stroke-miterlimit:4;stroke-dasharray:none;stroke-dashoffset:0;stroke-opacity:1" />
    <path
       transform="translate(0,-947.63784)"
       id="path5850"
       d="m 549.81591,1435.7079 c -2.90307,-2.9031 -13.32726,-42.3535 -13.32726,-50.4372 0,-2.263 1.169,-5.0847 2.59778,-6.2705 3.47599,-2.8848 61.04166,-16.3466 64.39657,-15.0592 3.53375,1.356 6.03791,8.1689 11.07224,30.1234 6.8964,30.0749 8.33054,28.1864 -28.06659,36.9582 -36.56008,8.811 -33.00169,8.3564 -36.67274,4.6853 z"
       style="fill:#ffffff;stroke:none;stroke-width:2;stroke-miterlimit:4;stroke-dasharray:none;stroke-dashoffset:0;stroke-opacity:1" />
    <path
       transform="translate(0,-947.63784)"
       id="path5852"
       d="m 637.63451,1409.5265 c -1.72692,-1.7269 -3.68517,-5.5519 -4.35167,-8.5 -0.6665,-2.9481 -2.46785,-10.44 -4.003,-16.6488 -1.53515,-6.2088 -2.79119,-13.5685 -2.79119,-16.3549 0,-6.5505 7.69327,-12.5889 20.81517,-16.3375 28.46212,-8.1311 209.45087,-49.5489 217.47197,-49.7667 13.3215,-0.3618 16.12474,3.0761 21.67332,26.5803 4.37224,18.5211 4.47198,20.2096 1.46484,24.7991 -1.79432,2.7384 -7.29644,6.3114 -12.39386,8.0483 -19.70694,6.7148 -214.962,51.3201 -224.64854,51.3201 -6.50849,0 -11.21313,-1.116 -13.23704,-3.1399 z"
       style="fill:#ffffff;stroke:none;stroke-width:2;stroke-miterlimit:4;stroke-dasharray:none;stroke-dashoffset:0;stroke-opacity:1" />
    <path
       transform="translate(0,-947.63784)"
       id="path5854"
       d="m 937.23161,1392.6016 c -10.0118,-3.078 -17.90924,-12.8172 -22.39578,-27.6187 -4.14625,-13.6789 -19.09929,-77.441 -21.29068,-90.7869 -2.51801,-15.3351 4.85695,-28.4898 20.35476,-36.3068 5.69348,-2.8717 79.21347,-20.5768 270.58879,-65.1631 32.45,-7.5602 62.7236,-14.3284 67.2747,-15.0405 16.7651,-2.6232 31.8951,6.1112 38.2641,22.0894 3.0131,7.5593 19.8615,77.7101 22.299,92.8454 3.4279,21.2854 -3.0492,33.8074 -21.573,41.7066 -11.2916,4.8151 -321.77678,77.893 -336.66365,79.2394 -5.83066,0.5274 -13.41686,0.093 -16.85824,-0.9648 z"
       style="fill:#ffffff;stroke:none;stroke-width:2;stroke-miterlimit:4;stroke-dasharray:none;stroke-dashoffset:0;stroke-opacity:1" />
    <path
       transform="translate(0,-947.63784)"
       id="path5856"
       d="m 1340.7618,1287.1664 c -5.0997,-12.6796 -30.2731,-121.1109 -30.2731,-130.3978 0,-5.773 0.5252,-6.4065 4.5,-5.4276 2.475,0.6095 11.5408,1.7372 20.1462,2.5059 17.3726,1.5519 20.3515,3.4102 23.099,14.4095 11.2834,45.1719 22.3247,97.0388 21.3267,100.1833 -1.1351,3.5764 -30.8792,24.2267 -34.8955,24.2267 -0.9301,0 -2.6866,-2.475 -3.9033,-5.5 z"
       style="fill:#ffffff;stroke:none;stroke-width:2;stroke-miterlimit:4;stroke-dasharray:none;stroke-dashoffset:0;stroke-opacity:1" />
    <path
       transform="translate(0,-947.63784)"
       id="path5858"
       d="m 1398.7313,1248.2885 c -1.901,-5.0176 -17.1531,-69.7743 -19.3936,-82.3405 -1.2349,-6.9263 -0.9899,-7.6051 2.3874,-6.614 2.07,0.6075 8.0096,1.7036 13.1991,2.4359 5.1896,0.7322 10.3289,2.4077 11.4207,3.7232 2.4862,2.9957 16.1522,59.6875 16.1201,66.8723 -0.019,4.1533 -2.4008,6.9512 -11.0031,12.9231 l -10.9794,7.6221 -1.7512,-4.6221 z"
       style="fill:#ffffff;stroke:none;stroke-width:2;stroke-miterlimit:4;stroke-dasharray:none;stroke-dashoffset:0;stroke-opacity:1" />
    <path
       transform="translate(0,-947.63784)"
       id="path5860"
       d="m 1438.7003,1212.1417 c -1.1452,-3.5614 -3.8136,-14.3503 -5.9298,-23.9753 l -3.8475,-17.5 7.7057,0 c 8.4273,0 8.178,-0.4361 13.7207,24 3.2902,14.5053 2.7437,17.5847 -3.7138,20.924 -5.7942,2.9963 -5.8739,2.9616 -7.9353,-3.4487 z"
       style="fill:#ffffff;stroke:none;stroke-width:2;stroke-miterlimit:4;stroke-dasharray:none;stroke-dashoffset:0;stroke-opacity:1" />
    <path
       transform="translate(0,-947.63784)"
       id="path5862"
       d="m 930.48865,1957.3999 c -103.17676,-9.0412 -194.73104,-30.1343 -285,-65.6609 -29.82796,-11.7392 -92.75556,-42.1752 -122,-59.0074 -74.80156,-43.0533 -140.57294,-93.5042 -202.067,-154.9982 -75.17482,-75.1748 -129.71022,-150.5879 -177.9448,-246.067 -54.288671,-107.463 -85.160885,-214.6583 -99.359907,-345 -3.8733,-35.5555 -3.270746,-145.78022 1.005854,-184.00002 C 60.006955,769.6473 96.552103,652.42368 158.11762,540.21988 263.89587,347.43788 428.34011,199.15505 629.94291,114.76514 716.99627,78.32504 811.53473,54.73442 912.48865,44.26019 c 38.02662,-3.94536 149.27645,-3.30949 187.00005,1.068836 159.2981,18.488676 297.1489,67.783024 426.4423,152.492444 340.403,223.02251 503.1297,637.41399 405.46,1032.52393 -36.8928,149.2451 -109.5196,287.7041 -212.081,404.321 -23.1639,26.3383 -69.8742,72.6579 -94.8213,94.028 -145.0052,124.2138 -323.8913,201.79 -519,225.0709 -26.6408,3.1788 -150.77853,5.757 -175.00005,3.6346 z m 154.00005,-49.8788 c 245.2497,-22.8916 473.2535,-145.6697 627.4095,-337.8547 95.234,-118.7275 160.6553,-261.8156 187.4561,-410 34.252,-189.38266 7.7448,-386.68534 -75.1004,-559.00002 -15.0512,-31.3057 -33.9642,-66.46768 -35.1267,-65.30524 -0.3953,0.39538 1.5154,9.94586 4.2461,21.2233 39.7181,164.03128 8.1026,338.24328 -86.3979,476.08196 -47.6126,69.4479 -100.323,117.6808 -163.1982,149.3356 -16.5285,8.3214 -50.2924,20.6639 -64.5157,23.5839 l -6.2271,1.2784 -5.1534,-20.5517 c -2.8344,-11.3035 -4.9822,-20.5919 -4.7729,-20.6408 47.5612,-11.1275 84.4641,-29.7979 127.4563,-64.4843 48.3813,-39.0343 98.6787,-108.66202 130.4555,-180.59204 64.7258,-146.51356 62.3581,-315.27378 -6.4704,-461.1902 C 1690.6192,408.6732 1652.157,352.9576 1621.4887,324.5994 1422.6124,140.70355 1154.0147,53.712238 886.89459,86.684832 743.62357,104.36982 603.43823,156.78424 484.48865,237.14188 384.88093,304.43292 297.94335,392.7846 231.9127,493.82614 153.436,613.91288 105.70994,745.65418 87.424417,892.66638 c -4.309802,34.65002 -6.056168,129.17072 -3.10397,168.00002 9.47225,124.5852 41.484213,239.7514 97.287103,350 45.18681,89.2746 96.635,160.0634 168.72632,232.1548 72.84436,72.8443 146.61372,126.124 238.15478,172.0065 116.46762,58.3762 237.33044,89.6877 373,96.6317 24.94156,1.2766 89.15855,-0.7795 123.00005,-3.9383 z"
       style="fill:#ffffff;stroke:none;stroke-width:2;stroke-miterlimit:4;stroke-dasharray:none;stroke-dashoffset:0;stroke-opacity:1" />
    <path
       transform="translate(0,-947.63784)"
       id="path5864"
       d="m 504.98981,1108.538 c -74.03118,-12.963 -114.91423,-96.1138 -79.99957,-162.70871 7.79087,-14.86003 30.66928,-38.19316 44.84937,-45.74081 21.71967,-11.56074 53.19232,-16.15198 77.0506,-11.24015 14.36122,2.95662 38.56131,15.00806 44.63735,22.22902 6.57898,7.81867 6.54375,17.40125 -0.093,25.28854 -8.1081,9.63593 -14.10817,9.73186 -32.0254,0.51202 -18.24361,-9.38778 -31.43968,-11.628 -48.15394,-8.17483 -24.17183,4.9939 -41.74494,18.33802 -52.20789,39.64397 -4.81167,9.79815 -5.53899,13.60392 -5.41203,28.31933 0.2583,29.94092 12.24957,50.61172 37.21147,64.14572 11.87326,6.4375 13.79703,6.8543 31.64186,6.8543 16.34962,0 20.56792,-0.7352 30.24003,-5.2704 6.18201,-2.8986 14.94829,-8.6205 19.48063,-12.7152 8.89873,-8.0395 19.27353,-27.2739 21.46792,-39.8006 1.30622,-7.4566 1.1618,-7.7366 -3.41231,-6.6155 -43.63933,10.6958 -50.22935,11.0416 -57.69602,3.0271 -8.23505,-8.83933 -6.32345,-26.23918 3.44045,-31.3159 1.91362,-0.99498 20.42147,-5.71363 41.12855,-10.4859 34.46597,-7.94321 38.08523,-8.4294 42.80567,-5.75023 10.99756,6.24182 13.42774,12.35428 14.22994,35.79158 1.18588,34.64675 -8.01118,58.40565 -31.90717,82.42635 -24.49981,24.6276 -63.91188,37.4225 -97.27653,31.5803 z"
       style="fill:#ffffff;stroke:none;stroke-width:2;stroke-miterlimit:4;stroke-dasharray:none;stroke-dashoffset:0;stroke-opacity:1" />
    <path
       transform="translate(0,-947.63784)"
       id="path5866"
       d="m 678.13344,1068.8255 c -6.43414,-5.0722 -7.29461,-7.6021 -17.58475,-51.7002 -9.22141,-39.51809 -9.979,-53.17998 -3.85643,-69.54403 7.72785,-20.65452 34.00793,-40.91489 53.07142,-40.91489 7.79334,0 18.72497,11.88323 18.72497,20.35498 0,9.48175 -4.67852,15.11103 -17.13855,20.62145 -11.54119,5.10407 -18.85127,14.03717 -18.8405,23.02357 0.003,2.75 4.04993,22.00281 8.99252,42.78402 4.9426,20.7812 8.98653,39.442 8.98653,41.4684 0,2.0265 -2.475,6.4542 -5.5,9.8395 -7.4049,8.2868 -19.23076,10.0779 -26.85521,4.0672 z"
       style="fill:#ffffff;stroke:none;stroke-width:2;stroke-miterlimit:4;stroke-dasharray:none;stroke-dashoffset:0;stroke-opacity:1" />
    <path
       transform="translate(0,-947.63784)"
       id="path5868"
       d="m 808.27357,1031.958 c -27.56758,-11.3403 -44.35356,-32.49772 -49.71516,-62.66214 -4.50265,-25.33194 5.10102,-52.1587 25.27168,-70.59355 15.53108,-14.19453 28.79145,-18.87768 53.70062,-18.96537 18.69992,-0.0658 20.93898,0.37099 33.43585,6.52318 16.1657,7.95835 29.48489,20.77913 36.28522,34.9274 2.77014,5.76337 8.77049,26.50307 13.3341,46.08821 7.25189,31.1222 7.98584,36.36167 5.82448,41.57967 -3.36743,8.1297 -9.26501,11.811 -18.92171,11.811 -15.72741,0 -17.2656,-2.7888 -28.12968,-51.00002 -6.98603,-31.00168 -11.52044,-39.06686 -25.92697,-46.11532 -9.12777,-4.46581 -12.68231,-5.19003 -20.32895,-4.14194 -19.51151,2.67435 -32.85651,16.30826 -34.20458,34.94507 -1.85829,25.69058 17.8799,44.37999 43.77617,41.45016 13.42484,-1.51884 20.85436,1.2049 24.96401,9.15205 6.15668,11.9057 1.89979,23.8041 -10.34714,28.9212 -10.79679,4.5112 -35.76157,3.5335 -49.01794,-1.9196 z"
       style="fill:#ffffff;stroke:none;stroke-width:2;stroke-miterlimit:4;stroke-dasharray:none;stroke-dashoffset:0;stroke-opacity:1" />
    <path
       transform="translate(0,-947.63784)"
       id="path5870"
       d="m 1167.6748,1019.7146 c -14.8964,-6.1241 -24.6248,-13.9277 -31.8576,-25.55467 -5.6701,-9.11496 -9.4843,-22.60847 -24.4485,-86.49355 -6.6955,-28.5846 -8.1885,-32.69376 -13.9878,-38.5 -5.5443,-5.55089 -7.9086,-6.49891 -16.1922,-6.49253 -10.7875,0.008 -21.5812,5.31664 -23.5734,11.59336 -0.6767,2.13225 3.2929,23.27363 8.8215,46.98083 5.5285,23.7072 10.0519,44.48238 10.0519,46.16706 0,15.62857 -21.0885,25.0045 -33.0666,14.70139 -4.5649,-3.92657 -6.6368,-10.15991 -15.124,-45.5 -9.3011,-38.72931 -10.2118,-41.30262 -16.7926,-47.45011 -5.767,-5.38728 -8.5366,-6.5 -16.17889,-6.5 -15.21531,0 -26.80961,10.06156 -26.8593,23.30858 -0.0118,3.13028 4.11797,23.40256 9.17714,45.04952 10.45248,44.72364 10.25683,47.50999 -3.81877,54.38452 -9.32354,4.5535 -18.0308,2.7681 -23.73049,-4.866 -5.33785,-7.14947 -21.82078,-77.4611 -22.02935,-93.97115 -0.54277,-42.96436 44.10602,-75.53487 85.54336,-62.40239 l 12.1206,3.84129 10.4942,-9.6495 c 26.7514,-24.59798 68.753,-22.53528 93.1261,4.57342 10.9779,12.2101 12.8282,17.47655 26.2168,74.61946 6.171,26.33826 12.5217,50.40479 14.1125,53.48116 4.984,9.63788 11.6726,12.53684 27.815,12.05548 12.7846,-0.38123 14.991,0.11392 19.6186,4.40257 8.8951,8.24374 9.5337,21.01506 1.4547,29.09406 -9.0885,9.0884 -32.8423,10.548 -50.8929,3.1272 z"
       style="fill:#ffffff;stroke:none;stroke-width:2;stroke-miterlimit:4;stroke-dasharray:none;stroke-dashoffset:0;stroke-opacity:1" />
    <path
       transform="translate(0,-947.63784)"
       id="path5872"
       d="m 1413.1988,968.62996 c -19.3802,-3.93514 -41.0984,-20.83106 -47.9958,-37.33887 -1.6394,-3.92356 -8.3347,-30.02217 -14.8785,-57.99691 -6.5438,-27.97474 -13.2866,-52.98267 -14.984,-55.57318 -3.4678,-5.29261 -14.2669,-11.05462 -20.7183,-11.05462 -7.0781,0 -17.6172,5.35263 -21.1474,10.74049 -3.182,4.85633 -2.8876,6.92618 6.8444,48.1237 5.5932,23.67702 10.1695,45.19725 10.1695,47.82274 0,12.24693 -16.2692,21.76124 -28.484,16.65758 -8.6449,-3.61209 -9.6161,-6.05498 -20.2755,-51.00116 -5.1614,-21.7633 -10.3002,-38.82761 -12.6482,-42 -2.1751,-2.93884 -7.6982,-6.6656 -12.2735,-8.28169 -7.3169,-2.58444 -9.3347,-2.58444 -16.7536,0 -9.5955,3.34265 -17.5652,13.34254 -17.5652,22.03953 0,3.03032 4.0531,23.00403 9.0068,44.38604 7.6665,33.09065 8.676,39.82572 6.7832,45.25534 -3.849,11.04131 -20.3442,15.9179 -30.7594,9.09361 -5.8113,-3.80773 -6.5681,-6.08272 -17.1753,-51.6274 -11.9128,-51.1509 -10.6419,-66.27489 7.446,-88.60921 14.8861,-18.38087 47.0169,-27.27529 71.1311,-19.69044 l 10.6457,3.34847 8.1697,-7.77166 c 14.0509,-13.36627 24.8043,-17.37651 46.7522,-17.43516 22.0254,-0.0589 32.158,3.74791 46.1697,17.34575 12.0518,11.69593 16.302,23.15275 29.1596,78.60347 10.5889,45.66639 12.147,50.6067 17.9773,57 6.2552,6.85928 6.7117,7.00436 22.7101,7.21711 14.575,0.19382 16.8606,0.75114 21.3043,5.19484 2.9507,2.95073 5.4094,8.19587 6.0377,12.8806 0.8753,6.52532 0.1426,8.99323 -4.2034,14.15812 -2.8949,3.44039 -7.7141,6.72325 -10.7094,7.29523 -12.6621,2.41802 -21.9509,2.7984 -29.7358,1.21768 z"
       style="fill:#ffffff;stroke:none;stroke-width:2;stroke-miterlimit:4;stroke-dasharray:none;stroke-dashoffset:0;stroke-opacity:1" />
    <path
       transform="translate(0,-947.63784)"
       id="path5874"
       d="m 1452.4887,883.22233 c -35.1514,-12.21802 -56.0821,-44.75399 -53.5653,-83.26489 1.7989,-27.52541 17.1988,-49.94919 43.0922,-62.74638 14.7403,-7.28509 15.9917,-7.54468 36.3693,-7.54468 23.8764,0 33.6124,3.19894 49.5946,16.2952 16.4413,13.47238 21.8564,24.43742 31.6086,64.00443 10.628,43.12012 10.8474,47.06118 3.0544,54.85421 -4.691,4.69103 -7.586,5.84616 -14.6514,5.84616 -14.1609,0 -16.8468,-4.42302 -25.7909,-42.47029 -9.1455,-38.90421 -10.2741,-41.85328 -18.9248,-49.4487 -24.7976,-21.77256 -63.5301,-4.95134 -63.721,27.6735 -0.084,14.32662 5.4122,25.21244 16.7849,33.24549 7.9182,5.59297 9.7155,6 26.4939,6 17.2419,0 18.2026,0.23615 22.8274,5.61152 6.6397,7.71712 6.7119,20.9214 0.1483,27.08761 -2.5739,2.41802 -7.7429,5.2749 -11.4868,6.34863 -9.9894,2.86491 -31.5067,2.09759 -41.8334,-1.49181 z"
       style="fill:#ffffff;stroke:none;stroke-width:2;stroke-miterlimit:4;stroke-dasharray:none;stroke-dashoffset:0;stroke-opacity:1" />
    <path
       transform="translate(0,-947.63784)"
       id="path5876"
       d="m 905.06073,707.76487 c -36.82057,-11.5073 -61.71233,-52.38896 -54.76865,-89.95079 4.68118,-25.32279 24.99731,-50.56599 47.70326,-59.27225 45.49421,-17.44408 94.11909,5.98744 106.71886,51.42602 4.8399,17.45438 4.7681,29.06013 -0.281,45.40738 -7.89462,25.55964 -28.67907,45.58956 -54.41656,52.44105 -13.03001,3.46868 -33.76836,3.44496 -44.95591,-0.0514 z m 40.5464,-42.03379 c 14.0658,-7.00929 20.88152,-18.03811 20.88152,-33.78933 0,-16.86767 -6.31208,-27.17685 -21.05665,-34.39069 -9.12777,-4.46581 -12.68231,-5.19003 -20.32895,-4.14194 -11.6629,1.59858 -19.48822,6.15141 -27.40235,15.9429 -5.68269,7.03071 -6.21205,8.93222 -6.21205,22.31436 0,13.30687 0.55264,15.32318 6.11594,22.31435 7.37826,9.27196 21.11433,16.68565 30.91515,16.68565 3.95095,0 11.64027,-2.22089 17.08739,-4.9353 z"
       style="fill:#ffffff;stroke:none;stroke-width:2;stroke-miterlimit:4;stroke-dasharray:none;stroke-dashoffset:0;stroke-opacity:1" />
    <path
       transform="translate(0,-947.63784)"
       id="path5878"
       d="m 817.33089,733.82854 c -3.45627,-1.50496 -7.16982,-5.19968 -8.46465,-8.42172 -1.26879,-3.15724 -8.55011,-32.49618 -16.18072,-65.19763 -9.80306,-42.01164 -13.44077,-61.08352 -12.3979,-65 0.81177,-3.04855 4.47218,-7.56781 8.13426,-10.04281 10.4238,-7.0449 23.2749,-5.45369 28.05256,3.47343 3.0808,5.75653 30.01421,121.38617 30.01421,128.85603 0,7.11567 -5.56978,14.34557 -13.32225,17.29306 -6.35321,2.41548 -8.36244,2.29363 -15.83551,-0.96036 z"
       style="fill:#ffffff;stroke:none;stroke-width:2;stroke-miterlimit:4;stroke-dasharray:none;stroke-dashoffset:0;stroke-opacity:1" />
    <path
       transform="translate(0,-947.63784)"
       id="path5880"
       d="m 779.57202,565.22634 c -21.35762,-5.52793 -25.62857,-32.99551 -7.14368,-45.94282 5.8556,-4.10143 17.51549,-4.03584 25.59838,0.14398 20.15602,10.42308 14.30253,41.80202 -8.53807,45.77017 -3.3,0.57332 -7.76248,0.58622 -9.91663,0.0287 z"
       style="fill:#ffffff;stroke:none;stroke-width:2;stroke-miterlimit:4;stroke-dasharray:none;stroke-dashoffset:0;stroke-opacity:1" />
    <path
       transform="translate(0,-947.63784)"
       id="path5882"
       d="m 679.05151,762.85466 c -22.8431,-5.88142 -46.45016,-26.41244 -54.75359,-47.61912 -3.51962,-8.989 -4.56103,-15.80656 -4.66957,-30.56916 -0.1269,-17.25907 0.42888,-20.19985 6.06558,-32.09474 10.70765,-22.59592 26.41046,-36.30973 49.00941,-42.80162 13.00886,-3.737 18.95256,-2.33583 25.52267,6.01671 9.75947,12.40716 3.19487,27.58086 -14.17475,32.76416 -16.8237,5.02039 -29.44214,25.37906 -26.30527,42.44108 6.30466,34.29231 49.55852,44.39365 69.46289,16.22208 9.69616,-13.72343 9.28657,-18.56 -7.72199,-91.18228 -13.65175,-58.28957 -15.09643,-66.29991 -12.90949,-71.57966 3.31686,-8.0076 9.24344,-11.78573 18.48775,-11.78573 8.91641,0 14.49807,2.53376 17.3594,7.88023 1.11517,2.0837 8.7858,32.70244 17.04584,68.04163 16.19523,69.28853 17.85195,83.56483 11.77971,101.50824 -7.60064,22.45984 -24.85527,40.54496 -46.45637,48.69236 -12.33212,4.65138 -37.23198,6.7719 -47.74222,4.06582 z"
       style="fill:#ffffff;stroke:none;stroke-width:2;stroke-miterlimit:4;stroke-dasharray:none;stroke-dashoffset:0;stroke-opacity:1" />
    <path
       transform="translate(0,-947.63784)"
       id="path5884"
       d="m 508.48865,803.99005 c -24.47255,-5.46851 -47.67399,-24.8232 -56.13792,-46.83036 -6.13539,-15.9527 -7.4701,-40.9847 -2.92608,-54.87726 7.5475,-23.07515 24.28358,-40.84203 47.064,-49.96273 8.56244,-3.42818 15.21034,-4.4209 30,-4.47987 21.60235,-0.0861 31.21943,3.18527 48.90885,16.63709 16.02471,12.18591 22.13159,24.60726 32.24794,65.59209 4.8326,19.57855 8.7993,38.00331 8.81488,40.94392 0.0703,13.25633 -17.59631,23.05299 -30.00266,16.63742 -7.85013,-4.05946 -8.55921,-5.84598 -17.0425,-42.93879 -4.06221,-17.76186 -9.09432,-34.39284 -11.80689,-39.0215 -13.31221,-22.71557 -49.47268,-23.51542 -64.09621,-1.41777 -13.18851,19.92918 -6.1078,45.63763 15.62309,56.72391 6.52389,3.32824 10.59038,3.95799 20.44819,3.1667 13.77934,-1.10607 23.33141,1.82557 26.74784,8.20923 3.11276,5.81626 2.65134,18.69913 -0.84873,23.69618 -5.62604,8.0323 -28.92372,11.95959 -46.9938,7.92174 z"
       style="fill:#ffffff;stroke:none;stroke-width:2;stroke-miterlimit:4;stroke-dasharray:none;stroke-dashoffset:0;stroke-opacity:1" />
    <path
       transform="translate(0,-947.63784)"
       id="path5886"
       d="m 295.59731,852.16638 c -5.60599,-4.93252 -6.07795,-6.61662 -26.20303,-93.5 -9.94947,-42.95355 -11.20957,-50.71365 -10.21172,-62.88729 1.57041,-19.15903 9.86998,-35.50062 25.27234,-49.7605 39.80213,-36.84975 103.62353,-23.8626 126.35939,25.71314 3.84662,8.38758 4.56533,13.36057 4.61524,31.93465 0.0528,19.66104 -0.5012,23.19499 -5.21121,33.24002 -5.9816,12.75695 -16.8991,25.68436 -26.92294,31.87942 -8.24359,5.09483 -8.58956,9.43138 -1.30673,16.37914 7.60325,7.25342 14.99324,9.63142 25.46894,8.19556 10.99519,-1.50705 18.06136,2.49653 22.29662,12.63293 2.32983,5.57608 2.46659,8.42447 0.66636,13.87922 -2.93852,8.90379 -11.21869,13.14347 -27.91597,14.29369 -17.29779,1.1916 -33.17624,-4.68348 -46.6041,-17.24367 -11.86233,-11.09583 -16.37512,-19.54133 -21.54835,-40.3269 -3.58732,-14.41348 -3.67605,-16.50651 -0.97398,-22.97348 2.38614,-5.71082 5.25637,-8.11933 14.54171,-12.20242 13.65306,-6.00374 19.58473,-11.07559 24.76341,-21.17384 7.57881,-14.77841 2.72813,-36.13484 -10.47694,-46.12749 -20.39579,-15.43408 -47.73544,-8.86034 -59.70909,14.35686 -4.58103,8.88274 -2.62126,22.8915 11.72033,83.77903 7.84909,33.32345 14.27106,63.31769 14.27106,66.65385 0,14.92872 -21.25515,23.4964 -32.89134,13.25808 z"
       style="fill:#ffffff;stroke:none;stroke-width:2;stroke-miterlimit:4;stroke-dasharray:none;stroke-dashoffset:0;stroke-opacity:1" />
    <path
       transform="translate(0,-947.63784)"
       id="path5888"
       d="m 928.48865,1957.4076 c -209.15482,-18.3776 -389.00768,-92.2978 -549,-225.6412 -29.41716,-24.5173 -83.49682,-78.2259 -109.55276,-108.801 C 156.26829,1489.583 80.169815,1324.5012 52.679145,1151.6664 38.173965,1060.4718 36.778531,963.7105 48.669995,873.66638 90.449439,557.30554 289.15955,280.45208 575.48865,139.67464 900.95355,-20.344402 1285.6679,15.288398 1575.4887,232.2961 c 72.191,54.05416 143.4154,125.71008 196.2811,197.47046 170.5257,231.47304 228.9386,528.63876 158.4131,805.89984 -62.084,244.0746 -219.0853,455.8719 -434.1319,585.6512 -116.7564,70.4617 -246.9911,114.7398 -389.5623,132.4462 -19.586,2.4324 -46.4962,3.5017 -98,3.8939 -39.05005,0.2974 -75.05005,0.1848 -80.00005,-0.2501 z m 107.00005,-46.7704 c 107.2925,-4.9589 201.4068,-24.9083 299,-63.3789 251.8907,-99.2936 446.6996,-305.1465 532.8631,-563.0716 79.7517,-238.7318 55.9908,-503.49268 -65.2488,-727.05134 -6.7204,-12.39206 -12.5164,-22.2336 -12.8799,-21.8701 -0.3635,0.36348 1.6106,10.04178 4.3868,21.5073 39.1087,161.51444 8.6616,333.72702 -83.29,471.09834 -15.9445,23.8203 -40.1915,54.6203 -57.914,73.5657 -34.4487,36.8257 -90.6504,75.2146 -135.9172,92.8389 -13.6341,5.3083 -42.0084,13.0492 -43.2566,11.801 -0.5081,-0.5081 -2.7089,-8.4582 -4.8908,-17.667 -2.1819,-9.2087 -4.3991,-18.1517 -4.9272,-19.8733 -0.7518,-2.4506 2.1919,-3.8761 13.5572,-6.5654 59.9488,-14.1852 128.8829,-64.3485 177.7684,-129.362 60.708,-80.73646 97.4434,-171.90048 109.9846,-272.94242 3.1969,-25.75668 3.1994,-98.21292 0,-124 -12.8426,-103.65046 -51.7064,-199.06302 -113.2361,-278 C 1620.8802,318.39352 1548.9818,259.60564 1478.4887,216.2093 1363.3866,145.35129 1240.3709,102.75373 1100.4687,85.309588 1058.7135,80.103214 938.17455,80.13571 896.48865,85.364578 741.67787,104.78326 606.47109,154.92853 482.26173,238.9924 279.58607,376.16158 137.55656,596.45602 95.636405,838.66638 c -10.194748,58.90422 -11.991984,82.21 -12.03001,156 -0.03714,72.06262 1.698896,95.97762 10.96138,151.00002 42.114705,250.1761 184.292695,470.8991 392.920875,609.9866 42.6155,28.4108 68.30386,43.092 113.96266,65.1312 121.48412,58.6395 237.19626,86.149 385.03734,91.539 3.85,0.1404 25.90005,-0.6183 49.00005,-1.686 z"
       style="fill:none;stroke:none;stroke-width:2;stroke-miterlimit:4;stroke-dasharray:none;stroke-dashoffset:0;stroke-opacity:1" />
  </g>
</svg>
